<?xml version="1.0" encoding="UTF-8"?>
<svg id="Capa_1" xmlns="http://www.w3.org/2000/svg" version="1.1" xmlns:xlink="http://www.w3.org/1999/xlink" viewBox="0 0 424.3 95.5">
  <!-- Generator: Adobe Illustrator 29.4.0, SVG Export Plug-In . SVG Version: 2.1.0 Build 152)  -->
  <defs>
    <style>
      .st0 {
        fill: #44006b;
      }

      .st1 {
        fill: url(#Degradado_sin_nombre);
      }
    </style>
    <linearGradient id="Degradado_sin_nombre" data-name="Degradado sin nombre" x1="1.4" y1="50.3" x2="146.9" y2="50.3" gradientTransform="translate(0 98) scale(1 -1)" gradientUnits="userSpaceOnUse">
      <stop offset="0" stop-color="#3c36ff"/>
      <stop offset="1" stop-color="#fe37a7"/>
    </linearGradient>
  </defs>
  <path class="st1" d="M1.6,42.9C3.8,16,32.1-4.2,58.3,2.6c.6.2,1.4.2,1.8.7v19c-15.5-7.6-34.5.7-39.5,17.1-8.2,27.3,24.3,48.4,45.8,29.8,9.6-8.3,18.2-19.6,27.8-27.9,8.7-7.5,19.8,2.9,13.4,12-20,17.7-33,42.8-63.6,40.8C22.7,92.7,3.4,74.3,1.6,52.7c-.2-2.6-.2-7.2,0-9.9h0ZM70.3,12.6c-10.3,9-19.5,20.4-29.7,29.7-6.2,9.2,4.8,19.3,13.5,11.9,9.9-8.5,18.7-19.9,28.6-28.6,13.2-10.4,32.5-7.4,41.7,6.7,9.6,14.8,3.2,35.2-13.1,41.7-3.9,1.6-7.3,1.3-9.8,5.3-2.1,3.4-1.8,7.3.7,10.4,4,4.9,9.3,3.4,14.5,1.5,20.6-7.6,33.2-29.4,29.6-51.2-.3-2-1-3.9-1.4-5.7-1.3-6-6.1-13.4-10.2-17.9C118-1.8,89.2-3.9,70.3,12.6Z"/>
  <path class="st0" d="M163.3,42.5v-22.1l5.2-5.3h23.4v5l-1.4,1.4h-19.6l-.2.2v19.6l.2.2h21v4.9l-1.4,1.5h-21.9l-5.2-5.3h-.1ZM226.7,47.8h-7.7l-6.4-9.7h-10.1v9.7h-7.3V15h25.4l5.2,5.3v12.5l-5.1,5.2h-.4l6.4,9.7h0ZM202.5,21.4v10.9h16v-10.7l-.2-.2h-15.8ZM229.5,42.5v-22.1l5.2-5.3h20.2l5.2,5.3v22.1l-5.2,5.3h-20.2l-5.2-5.3h0ZM237,41.4h15.5l.2-.2v-19.6l-.2-.2h-15.5l-.2.2v19.6l.2.2ZM263.5,42.8l1.4-1.4h19.6l.2-.2v-6.7l-.2-.2h-15.8l-5.2-5.3v-8.6l5.2-5.3h22.4v5l-1.4,1.4h-18.7l-.2.2v6.7l.2.2h15.8l5.2,5.3v8.6l-5.2,5.3h-23.3s0-5,0-5ZM294.7,42.8l1.4-1.4h19.6l.2-.2v-6.7l-.2-.2h-15.8l-5.2-5.3v-8.6l5.2-5.3h22.4v5l-1.4,1.4h-18.7l-.2.2v6.7l.2.2h15.8l5.2,5.3v8.6l-5.2,5.3h-23.4v-5h.1ZM326.3,15h25.4l5.2,5.3v13.6l-5.2,5.3h-18.1v8.5h-7.3V15ZM349.3,32.9l.2-.2v-11.1l-.2-.2h-15.7v11.5h15.7ZM365.8,15h17.4l8.1,32.8h-7.2l-2-8.3h-15.1l-2,8.3h-7.2l8.1-32.8h0ZM380.8,33.6l-3.1-12.3h-6.3l-3.1,12.3h12.6-.1ZM401.9,34.5l-13.3-19.5h7.6l9.4,13.3,9.3-13.3h7.6l-13.3,19.5v13.3h-7.3v-13.3h0ZM162.9,78.9l.7-.7h14.7l1.7-1.7v-4.2l-1.7-1.7h-12l-3.4-3.4v-5.2l3.4-3.4h15.6v1.6l-.7.7h-14.1l-1.7,1.7v4.2l1.7,1.7h12l3.4,3.4v5.2l-3.4,3.4h-16.2v-1.6ZM194.6,77.1v-15.1l3.4-3.4h14.2l3.4,3.4v15.1l-3.4,3.4h-14.2l-3.4-3.4ZM198.9,78.2h12.5l1.7-1.7v-13.9l-1.7-1.7h-12.5l-1.7,1.7v13.9l1.7,1.7ZM227.8,58.6h2.6v19.6h15.8v1.6l-.7.7h-17.7v-21.9h0ZM258.2,77.1v-18.5h2.6v17.9l1.7,1.7h12.5l1.7-1.7v-17.9h2.6v18.5l-3.4,3.4h-14.2l-3.4-3.4h-.1ZM290.1,58.6h20.6v1.6l-.7.7h-8.3v19.6h-2.6v-19.6h-9v-2.2h0ZM322.2,58.6h2.6v21.9h-2.6v-21.9ZM336.9,77.1v-15.1l3.4-3.4h14.2l3.4,3.4v15.1l-3.4,3.4h-14.2l-3.4-3.4ZM341.2,78.2h12.5l1.7-1.7v-13.9l-1.7-1.7h-12.5l-1.7,1.7v13.9l1.7,1.7ZM370.1,80.5v-21.9h2.1l16.4,17.7v-17.7h2.6v21.9h-2.1l-16.4-17.7v17.7h-2.6ZM403.3,78.9l.7-.7h14.7l1.7-1.7v-4.2l-1.7-1.7h-12l-3.4-3.4v-5.2l3.4-3.4h15.6v1.6l-.7.7h-14.1l-1.7,1.7v4.2l1.7,1.7h12l3.4,3.4v5.2l-3.4,3.4h-16.2v-1.6Z"/>
</svg>